<svg width="20" height="20" viewBox="0 0 20 20" fill="none" xmlns="http://www.w3.org/2000/svg">
<g clip-path="url(#clip0_2260_2899)">
<path d="M9.82579 10.4655C9.06532 9.13646 8.66306 7.63266 8.65844 6.10141C8.65382 4.57016 9.04697 3.06396 9.79943 1.73033C8.75033 1.86863 7.73732 2.20599 6.81479 2.72431C4.92918 3.81297 3.55326 5.60609 2.98974 7.70922C2.4262 9.81235 2.72121 12.0532 3.80987 13.9388C4.89854 15.8244 6.69166 17.2003 8.7948 17.7639C10.8979 18.3274 13.1388 18.0324 15.0244 16.9437C15.948 16.4017 16.7582 15.6863 17.4103 14.837C15.8754 14.8295 14.3689 14.4224 13.039 13.6559C11.7092 12.8894 10.6018 11.7899 9.82579 10.4655Z" stroke="#3E3E3E" stroke-linecap="round" stroke-linejoin="round"/>
</g>
<defs>
<clipPath id="clip0_2260_2899">
<rect width="20" height="20" fill="white"/>
</clipPath>
</defs>
</svg>
