<svg width="831" height="509" viewBox="0 0 831 509" fill="none" xmlns="http://www.w3.org/2000/svg">
<g clip-path="url(#clip0_1470_3171)">
<rect width="831" height="509" fill="#32FFA4"/>
<path fill-rule="evenodd" clip-rule="evenodd" d="M79.0203 455.768C78.9787 455.867 78.9356 455.965 78.8961 456.064C77.8201 458.759 76.7447 461.454 75.668 464.149C75.5168 464.527 75.5759 464.501 75.1471 464.503C74.8865 464.503 74.6253 464.492 74.3654 464.506C74.1672 464.517 74.0739 464.434 74.0027 464.256C73.4113 462.781 72.8115 461.309 72.2138 459.836C71.691 458.548 71.1676 457.259 70.6434 455.972C70.6162 455.905 70.5797 455.842 70.5003 455.787V456.062C70.5003 458.737 70.5003 461.413 70.5001 464.089C70.5001 464.514 70.5247 464.503 70.0913 464.503C69.683 464.503 69.2747 464.505 68.8666 464.501C68.6344 464.499 68.6177 464.478 68.6102 464.249C68.6086 464.197 68.6098 464.145 68.6098 464.094C68.6098 460.546 68.6098 456.999 68.6095 453.452C68.6095 453.024 68.5947 453.045 69.0258 453.045C69.7468 453.045 70.4677 453.045 71.1887 453.046C71.4893 453.046 71.4907 453.047 71.6026 453.328C72.6407 455.936 73.6781 458.545 74.716 461.152C74.7507 461.24 74.7891 461.326 74.8442 461.458C74.8947 461.361 74.9328 461.301 74.9596 461.236C75.6054 459.662 76.2499 458.087 76.8953 456.513C77.331 455.45 77.7677 454.387 78.2046 453.325C78.3189 453.047 78.32 453.046 78.6227 453.046C79.3263 453.045 80.0298 453.045 80.7334 453.046C81.0802 453.046 81.0821 453.047 81.0821 453.39C81.0826 455.703 81.0823 458.016 81.0823 460.329V464.057C81.0823 464.118 81.0835 464.178 81.0819 464.238C81.0751 464.483 81.0619 464.5 80.8094 464.502C80.3318 464.505 79.8539 464.504 79.3761 464.502C79.0931 464.501 79.0803 464.489 79.0797 464.21C79.0778 463.373 79.079 462.536 79.079 461.699C79.0787 459.817 79.079 457.936 79.079 456.054V455.78C79.0594 455.776 79.0399 455.772 79.0203 455.768Z" fill="black"/>
<path fill-rule="evenodd" clip-rule="evenodd" d="M124.237 457.718C124.103 457.71 124.011 457.699 123.918 457.698C123.642 457.696 123.366 457.701 123.09 457.694C122.923 457.69 122.894 457.662 122.891 457.493C122.885 457.097 122.885 456.701 122.89 456.304C122.893 456.127 122.921 456.102 123.111 456.097C123.396 456.09 123.681 456.097 123.965 456.093C124.215 456.089 124.233 456.072 124.236 455.83C124.24 455.494 124.225 455.157 124.242 454.822C124.291 453.895 124.641 453.118 125.416 452.566C125.818 452.279 126.273 452.117 126.76 452.064C127.189 452.017 127.622 452.017 128.048 452.108C128.322 452.166 128.345 452.194 128.347 452.465C128.349 452.836 128.348 453.206 128.347 453.577C128.346 453.653 128.336 453.729 128.328 453.838C128.238 453.815 128.166 453.803 128.099 453.778C127.836 453.681 127.564 453.64 127.285 453.661C126.839 453.694 126.513 453.912 126.355 454.329C126.277 454.535 126.243 454.763 126.226 454.984C126.204 455.267 126.216 455.553 126.219 455.837C126.222 456.07 126.24 456.089 126.471 456.092C126.851 456.097 127.23 456.094 127.61 456.094C127.998 456.094 128.387 456.096 128.775 456.093C129.045 456.091 129.066 456.07 129.067 455.794C129.07 455.371 129.066 454.949 129.069 454.527C129.071 454.268 129.082 454.256 129.323 454.182C129.802 454.036 130.281 453.891 130.76 453.747C130.833 453.725 130.908 453.711 131.018 453.685C131.025 453.798 131.036 453.887 131.036 453.977C131.038 454.563 131.037 455.149 131.037 455.735C131.037 455.804 131.039 455.873 131.041 455.942C131.046 456.034 131.097 456.083 131.188 456.088C131.257 456.092 131.326 456.094 131.395 456.094C131.818 456.094 132.241 456.092 132.664 456.096C132.764 456.097 132.864 456.116 132.982 456.129C132.988 456.243 132.998 456.336 132.999 456.429C133 456.74 133 457.05 132.999 457.36C132.998 457.694 132.996 457.696 132.672 457.697C132.241 457.699 131.809 457.697 131.378 457.698C131.309 457.698 131.24 457.7 131.171 457.703C131.089 457.708 131.046 457.755 131.042 457.836C131.038 457.905 131.037 457.973 131.037 458.042C131.037 459.171 131.034 460.301 131.04 461.429C131.04 461.652 131.059 461.878 131.096 462.098C131.176 462.582 131.471 462.832 131.962 462.864C132.244 462.882 132.511 462.836 132.766 462.713C132.826 462.684 132.89 462.664 132.955 462.639C132.973 462.678 132.991 462.7 132.992 462.722C132.995 463.17 132.995 463.618 132.996 464.066C132.997 464.165 132.948 464.228 132.858 464.263C132.826 464.275 132.795 464.29 132.762 464.301C132.1 464.511 131.429 464.576 130.746 464.422C129.937 464.239 129.432 463.737 129.208 462.946C129.097 462.553 129.071 462.148 129.07 461.743C129.066 460.51 129.069 459.278 129.068 458.045C129.068 457.7 129.066 457.698 128.725 457.698C128 457.697 127.275 457.697 126.55 457.698C126.457 457.698 126.364 457.706 126.244 457.711C126.234 457.835 126.219 457.943 126.219 458.05C126.217 459.998 126.218 461.946 126.218 463.894C126.218 464.336 126.241 464.312 125.791 464.312C125.385 464.313 124.98 464.313 124.574 464.312C124.241 464.311 124.238 464.309 124.238 463.985C124.236 463.287 124.237 462.589 124.237 461.891V458.09V457.718Z" fill="black"/>
<path fill-rule="evenodd" clip-rule="evenodd" d="M116.152 460.315C116.137 460.751 116.195 461.191 116.365 461.612C116.562 462.1 116.883 462.479 117.376 462.706C117.745 462.875 118.134 462.905 118.533 462.889C119.431 462.855 120.043 462.421 120.309 461.578C120.414 461.244 120.459 460.888 120.494 460.538C120.545 460.032 120.491 459.528 120.326 459.043C120.074 458.303 119.564 457.837 118.767 457.707C118.591 457.678 118.408 457.676 118.229 457.683C117.352 457.713 116.738 458.127 116.393 458.918C116.2 459.359 116.141 459.824 116.152 460.315ZM118.441 456.078C118.962 456.087 119.471 456.144 119.966 456.301C121.14 456.673 121.913 457.446 122.285 458.589C122.627 459.643 122.638 460.717 122.298 461.772C121.843 463.182 120.866 464.061 119.389 464.38C118.554 464.56 117.714 464.554 116.892 464.315C115.343 463.865 114.468 462.817 114.2 461.276C114.07 460.524 114.097 459.766 114.288 459.02C114.69 457.454 115.864 456.403 117.494 456.163C117.807 456.117 118.126 456.106 118.441 456.078Z" fill="black"/>
<path fill-rule="evenodd" clip-rule="evenodd" d="M105.012 460.271C104.984 459.996 104.973 459.717 104.924 459.445C104.823 458.883 104.595 458.382 104.104 458.037C102.932 457.212 101.276 457.738 100.827 459.089C100.574 459.852 100.572 460.63 100.793 461.402C100.921 461.849 101.161 462.233 101.55 462.514C101.979 462.824 102.469 462.903 102.986 462.887C103.933 462.856 104.542 462.407 104.827 461.519C104.958 461.114 105.004 460.697 105.012 460.271ZM102.936 456.078C103.394 456.086 103.844 456.131 104.286 456.249C105.379 456.543 106.191 457.182 106.623 458.211C107.188 459.555 107.182 460.927 106.594 462.265C106.132 463.316 105.301 463.991 104.182 464.304C103.203 464.579 102.214 464.579 101.244 464.27C99.9415 463.855 99.1285 462.963 98.7881 461.67C98.5297 460.687 98.5559 459.694 98.8793 458.73C99.3776 457.241 100.462 456.413 102.016 456.16C102.319 456.111 102.629 456.105 102.936 456.078Z" fill="black"/>
<path fill-rule="evenodd" clip-rule="evenodd" d="M108.081 462.209C108.189 462.271 108.261 462.308 108.329 462.351C108.884 462.701 109.487 462.924 110.142 462.963C110.415 462.98 110.7 462.933 110.97 462.874C111.244 462.813 111.437 462.631 111.484 462.339C111.532 462.037 111.473 461.758 111.207 461.572C111.014 461.437 110.806 461.32 110.594 461.216C110.16 461.004 109.715 460.813 109.283 460.598C109.111 460.512 108.949 460.396 108.8 460.273C108.23 459.802 108.047 459.171 108.068 458.461C108.097 457.507 108.613 456.873 109.427 456.445C109.853 456.221 110.315 456.116 110.795 456.088C111.455 456.05 112.1 456.123 112.73 456.321C113.009 456.409 113.02 456.425 113.022 456.712C113.024 457.11 113.023 457.507 113.021 457.904C113.021 457.978 113.01 458.051 113 458.168C112.9 458.119 112.828 458.086 112.759 458.047C112.19 457.728 111.58 457.575 110.928 457.621C110.779 457.631 110.624 457.666 110.487 457.725C110.234 457.834 110.047 458.012 110.025 458.31C110.002 458.635 110.074 458.928 110.379 459.095C110.697 459.27 111.027 459.427 111.361 459.571C111.758 459.744 112.143 459.933 112.507 460.172C113.762 461.001 113.726 462.915 112.579 463.803C112.087 464.183 111.525 464.375 110.92 464.46C110.053 464.582 109.212 464.453 108.389 464.178C108.05 464.064 108.052 464.056 108.051 463.711C108.049 463.314 108.049 462.917 108.052 462.52C108.052 462.431 108.068 462.342 108.081 462.209Z" fill="black"/>
<path fill-rule="evenodd" clip-rule="evenodd" d="M92.5252 458.325C92.4057 458.254 92.3274 458.208 92.2504 458.161C91.6018 457.76 90.9037 457.581 90.1408 457.717C89.2752 457.872 88.6817 458.368 88.3775 459.173C88.0795 459.96 88.0799 460.766 88.397 461.548C88.726 462.36 89.37 462.786 90.2411 462.885C90.9222 462.962 91.5481 462.786 92.1354 462.454C92.251 462.389 92.3651 462.32 92.5091 462.236C92.5236 462.341 92.5394 462.405 92.5397 462.468C92.542 462.89 92.5346 463.312 92.544 463.734C92.5477 463.902 92.4779 463.999 92.3293 464.068C91.931 464.253 91.5153 464.375 91.0799 464.439C90.4384 464.533 89.7981 464.538 89.1653 464.39C87.7906 464.069 86.8445 463.257 86.3978 461.934C85.9697 460.666 86.0789 459.41 86.6779 458.219C87.2777 457.028 88.3126 456.385 89.6194 456.159C90.4398 456.017 91.2586 456.06 92.0595 456.302C92.5426 456.448 92.541 456.452 92.5413 456.949C92.5413 457.312 92.542 457.675 92.5406 458.037C92.5401 458.118 92.5321 458.198 92.5252 458.325Z" fill="black"/>
<path fill-rule="evenodd" clip-rule="evenodd" d="M98.5757 458.132C98.5193 458.109 98.4579 458.084 98.3971 458.059C98.1096 457.942 97.8151 457.868 97.502 457.87C97.0131 457.872 96.6311 458.083 96.3399 458.473C96.0132 458.911 95.8629 459.417 95.8494 459.958C95.8312 460.679 95.8394 461.401 95.8378 462.124C95.8364 462.819 95.8389 463.515 95.8366 464.211C95.8357 464.491 95.8218 464.503 95.5439 464.505C95.092 464.506 94.6403 464.507 94.1884 464.505C93.903 464.503 93.8943 464.494 93.8938 464.189C93.8925 463.223 93.8934 462.257 93.8934 461.292C93.8934 459.726 93.8931 458.16 93.8934 456.594C93.8936 456.211 93.8945 456.21 94.2813 456.209C94.7077 456.208 95.134 456.206 95.5601 456.211C95.8108 456.213 95.8337 456.239 95.8364 456.5C95.8398 456.819 95.8373 457.139 95.8789 457.469C95.9362 457.367 95.9924 457.265 96.0513 457.164C96.5865 456.246 97.3602 455.984 98.2864 456.106C98.3535 456.115 98.4284 456.124 98.4821 456.16C98.5385 456.198 98.6111 456.27 98.6116 456.327C98.6159 456.917 98.607 457.507 98.6008 458.097C98.6008 458.104 98.5912 458.111 98.5757 458.132Z" fill="black"/>
<path fill-rule="evenodd" clip-rule="evenodd" d="M84.7762 456.111C84.7819 456.225 84.7909 456.317 84.7909 456.409C84.7916 458.884 84.7914 461.359 84.7914 463.834C84.7914 463.859 84.7918 463.885 84.7911 463.91C84.7835 464.149 84.7702 464.165 84.5109 464.167C84.0236 464.17 83.5364 464.17 83.0491 464.167C82.8 464.165 82.7801 464.142 82.7701 463.903C82.7679 463.853 82.7691 463.802 82.7691 463.751C82.7691 461.327 82.7689 458.902 82.7691 456.478C82.7694 456.08 82.7701 456.079 83.1757 456.079C83.601 456.078 84.0262 456.077 84.4515 456.08C84.5541 456.081 84.6567 456.099 84.7762 456.111Z" fill="black"/>
<path fill-rule="evenodd" clip-rule="evenodd" d="M82.7688 453.904C82.767 453.24 83.2908 452.709 83.9482 452.709C84.6024 452.709 85.1309 453.247 85.1256 453.908C85.1203 454.562 84.6121 455.06 83.9443 455.066C83.2911 455.072 82.7704 454.557 82.7688 453.904Z" fill="black"/>
<mask id="mask0_1470_3171" style="mask-type:luminance" maskUnits="userSpaceOnUse" x="44" y="449" width="89" height="20">
<path fill-rule="evenodd" clip-rule="evenodd" d="M44 468.216H132.999V449H44V468.216Z" fill="white"/>
</mask>
<g mask="url(#mask0_1470_3171)">
<path fill-rule="evenodd" clip-rule="evenodd" d="M54.115 458.102H63.2172V449H54.115V458.102Z" fill="black"/>
<path fill-rule="evenodd" clip-rule="evenodd" d="M44 458.102H53.1022V449H44V458.102Z" fill="black"/>
<path fill-rule="evenodd" clip-rule="evenodd" d="M54.115 468.215H63.2172V459.113H54.115V468.215Z" fill="black"/>
<path fill-rule="evenodd" clip-rule="evenodd" d="M44 468.215H53.1022V459.113H44V468.215Z" fill="black"/>
</g>
<g opacity="0.7">
<path d="M283.584 338.562H265V170.004L283.584 202.183V338.562Z" fill="black"/>
</g>
<path opacity="0.9" d="M359.447 170.002L322.937 233.211L286.446 170.002H265L312.223 251.796H333.67L380.893 170.002H359.447Z" fill="black"/>
<g opacity="0.7">
<path d="M380.893 338.558H362.309V202.179L380.893 170V338.558Z" fill="black"/>
</g>
<path opacity="0.5" d="M333.67 251.793H312.223L283.584 301.408V338.557L322.937 270.358L362.309 338.557V301.408L333.67 251.793Z" fill="black"/>
<path d="M449.281 222.751V208.244H448.041L443.86 214.092L439.659 208.244H438.419V222.751H439.98V211.423L443.42 216.251L444.34 216.231L447.721 211.443V222.751H449.281Z" fill="black"/>
<path d="M456.257 222.751V208.244H454.837V222.751H456.257Z" fill="black"/>
<path d="M472.821 222.751L467.8 215.518L472.821 208.244H470.94L466.779 214.193L462.639 208.244H460.758L465.779 215.518L460.758 222.751H462.639L466.779 216.801L470.94 222.751H472.821Z" fill="black"/>
<path d="M488.18 222.751V221.121H478.878V216.312H484.259V214.682H478.878V209.874H488.18V208.244H477.318V222.751H488.18Z" fill="black"/>
<path d="M503.699 219.695V211.3L500.778 208.244H492.836V222.751H500.778L503.699 219.695ZM502.138 219.022L500.138 221.121H494.397V209.874H500.138L502.138 211.973V219.022Z" fill="black"/>
<path d="M471.906 247.147L469.442 240.281L471.628 239.12V235.697L468.727 232.641H460.839V247.147H462.388V240.709H467.952L470.257 247.147H471.906ZM470.078 238.101L468.23 239.079H462.388V234.271H468.091L470.078 236.369V238.101Z" fill="black"/>
<path d="M487.955 247.147V245.517H478.715V240.709H484.061V239.079H478.715V234.271H487.955V232.641H477.166V247.147H487.955Z" fill="black"/>
<path d="M502.853 247.147L497.767 232.641H496.594L491.527 247.147H493.137L494.627 242.95H499.734L501.224 247.147H502.853ZM499.177 241.32H495.203L497.171 235.656L499.177 241.32Z" fill="black"/>
<path d="M518.106 247.147V245.517H508.866V232.641H507.316V247.147H518.106Z" fill="black"/>
<path d="M523.715 247.147V232.641H522.304V247.147H523.715Z" fill="black"/>
<path d="M539.135 234.271V232.641H528.365V234.271H532.975V247.147H534.525V234.271H539.135Z" fill="black"/>
<path d="M554.472 232.641H552.544L548.471 238.488L544.358 232.641H542.45L547.696 240.138V247.147H549.226V240.118L554.472 232.641Z" fill="black"/>
<path d="M443.274 268.551V260.034L440.393 257.039H432.485V271.546H440.393L443.274 268.551ZM442.301 268.123L439.976 270.527H433.458V258.058H439.976L442.301 260.462V268.123Z" fill="black"/>
<path d="M459.407 271.546V270.527H449.591V264.802H455.274V263.783H449.591V258.058H459.407V257.039H448.617V271.546H459.407Z" fill="black"/>
<path d="M474.385 260.258V257.039H473.411V259.953L468.98 270.079L464.569 259.953V257.039H463.595V260.258L468.622 271.546H469.357L474.385 260.258Z" fill="black"/>
<path d="M490.237 271.546V270.527H480.421V264.802H486.104V263.783H480.421V258.058H490.237V257.039H479.447V271.546H490.237Z" fill="black"/>
<path d="M505.651 271.546V270.527H495.836V257.039H494.862V271.546H505.651Z" fill="black"/>
<path d="M519.568 268.551V260.034L516.687 257.039H511.66L508.778 260.034V268.551L511.66 271.546H516.687L519.568 268.551ZM518.594 268.123L516.269 270.527H512.077L509.752 268.123V260.462L512.077 258.058H516.269L518.594 260.462V268.123Z" fill="black"/>
<path d="M535.705 264.17V260.034L532.824 257.039H524.915V271.546H525.889V265.698H532.764L535.705 264.17ZM534.731 263.538L532.506 264.7H525.889V258.058H532.406L534.731 260.462V263.538Z" fill="black"/>
<path d="M551.585 271.546V270.527H541.769V264.802H547.452V263.783H541.769V258.058H551.585V257.039H540.796V271.546H551.585Z" fill="black"/>
<path d="M567 271.546V268.245L562.966 264.802H564.059L567 263.253V260.034L564.119 257.039H556.211V271.546H557.184V264.802H561.476L566.026 268.714V271.546H567ZM566.026 262.622L563.801 263.783H557.184V258.058H563.702L566.026 260.462V262.622Z" fill="black"/>
<path d="M460.402 287.65V284.431L457.525 281.436H449.629V295.942H450.601V289.198H457.466L460.402 287.65ZM459.43 287.018L457.208 288.179H450.601V282.454H457.109L459.43 284.858V287.018Z" fill="black"/>
<path d="M476.258 295.942V292.641L472.231 289.198H473.322L476.258 287.65V284.431L473.381 281.436H465.485V295.942H466.457V289.198H470.743L475.286 293.11V295.942H476.258ZM475.286 287.018L473.064 288.179H466.457V282.454H472.965L475.286 284.858V287.018Z" fill="black"/>
<path d="M492.362 292.947V284.431L489.485 281.436H484.466L481.589 284.431V292.947L484.466 295.942H489.485L492.362 292.947ZM491.39 292.519L489.069 294.923H484.883L482.561 292.519V284.858L484.883 282.454H489.069L491.39 284.858V292.519Z" fill="black"/>
<path d="M508.435 284.573L505.419 281.436H500.4L497.523 284.431V292.947L500.4 295.942H505.419L508.296 292.947V288.179H502.582V289.198H507.324V292.519L505.003 294.923H500.816L498.495 292.519V284.858L500.816 282.454H505.003L507.741 285.307L508.435 284.573Z" fill="black"/>
<path d="M524.544 295.942V292.641L520.517 289.198H521.608L524.544 287.65V284.431L521.667 281.436H513.771V295.942H514.743V289.198H519.029L523.572 293.11V295.942H524.544ZM523.572 287.018L521.35 288.179H514.743V282.454H521.251L523.572 284.858V287.018Z" fill="black"/>
<path d="M540.827 295.942V284.431L537.95 281.436H532.93L530.054 284.431V295.942H531.026V289.198H539.855V295.942H540.827ZM539.855 288.179H531.026V284.858L533.347 282.454H537.533L539.855 284.858V288.179Z" fill="black"/>
<path d="M557.109 295.942V281.436H556.137V284.166L551.733 290.339L547.308 284.186V281.436H546.336V295.942H547.308V285.938L551.415 291.643H552.05L556.137 285.959V295.942H557.109Z" fill="black"/>
</g>
<defs>
<clipPath id="clip0_1470_3171">
<rect width="831" height="509" fill="white"/>
</clipPath>
</defs>
</svg>
